<svg id="visual" viewBox="0 0 1200 600" width="1200" height="600" xmlns="http://www.w3.org/2000/svg" xmlns:xlink="http://www.w3.org/1999/xlink" version="1.1"><rect x="0" y="0" width="1200" height="600" fill="#eee"></rect><path d="M0 391L25 413C50 435 100 479 150 496.8C200 514.7 250 506.3 300 483.2C350 460 400 422 450 421.7C500 421.3 550 458.7 600 466C650 473.3 700 450.7 750 433.8C800 417 850 406 900 409.8C950 413.7 1000 432.3 1050 448.5C1100 464.7 1150 478.3 1175 485.2L1200 492L1200 601L1175 601C1150 601 1100 601 1050 601C1000 601 950 601 900 601C850 601 800 601 750 601C700 601 650 601 600 601C550 601 500 601 450 601C400 601 350 601 300 601C250 601 200 601 150 601C100 601 50 601 25 601L0 601Z" fill="#0066FF" stroke-linecap="round" stroke-linejoin="miter"></path></svg>